<svg width="327" height="221" viewBox="0 0 327 221" fill="none" xmlns="http://www.w3.org/2000/svg">
<path d="M306.647 0H198.099C186.859 0 177.747 9.11193 177.747 20.3526C177.747 31.5932 186.859 40.7051 198.099 40.7051H257.513L174.075 124.141L120.625 70.6869C112.676 62.7374 99.788 62.7367 91.8385 70.6863L5.96072 156.57C2.14402 160.386 0 165.563 0 170.96C0 189.092 0 220.096 0 220.096L106.233 113.866L159.684 167.312C167.632 175.259 180.518 175.259 188.466 167.311L286.294 69.4862V128.9C286.294 140.141 295.406 149.253 306.647 149.253C317.887 149.253 326.999 140.141 326.999 128.9V20.3526C327 9.11193 317.888 0 306.647 0Z" fill="#A1A1A1" fill-opacity="0.6"/>
</svg>
