<svg width="11" height="10" viewBox="0 0 11 10" fill="none" xmlns="http://www.w3.org/2000/svg">
<path id="Vector" d="M10.9713 3.77888C10.8993 3.56758 10.7017 3.41751 10.468 3.39753L7.29311 3.12405L6.03767 0.336529C5.9451 0.132239 5.73428 0 5.50004 0C5.26581 0 5.05499 0.132239 4.96242 0.337006L3.70698 3.12405L0.531582 3.39753C0.298269 3.41799 0.101213 3.56758 0.028785 3.77888C-0.0436426 3.99018 0.0232459 4.22193 0.199741 4.36802L2.59959 6.36458L1.89193 9.32169C1.84015 9.53911 1.92911 9.76386 2.11928 9.89427C2.2215 9.96433 2.3411 10 2.4617 10C2.56568 10 2.66882 9.97341 2.76139 9.92086L5.50004 8.36815L8.23769 9.92086C8.43802 10.0352 8.69055 10.0248 8.8803 9.89427C9.07056 9.76347 9.15944 9.53864 9.10766 9.32169L8.4 6.36458L10.7998 4.36842C10.9763 4.22193 11.0437 3.99057 10.9713 3.77888Z" fill="#FFC107"/>
</svg>
