<svg width="327" height="221" viewBox="0 0 327 221" fill="none" xmlns="http://www.w3.org/2000/svg">
<g id="Group">
<path id="Vector" d="M306.648 0H198.1C186.859 0 177.747 9.11195 177.747 20.3526C177.747 31.5933 186.859 40.7052 198.1 40.7052H257.514L174.075 124.141L120.626 70.6871C112.677 62.7375 99.7882 62.7369 91.8387 70.6865L5.96074 156.57C2.14403 160.387 0 165.563 0 170.961C0 189.093 0 220.096 0 220.096L106.233 113.866L159.684 167.312C167.633 175.26 180.518 175.259 188.466 167.311L286.295 69.4864V128.9C286.295 140.141 295.407 149.253 306.648 149.253C317.888 149.253 327 140.141 327 128.9V20.3526C327.001 9.11195 317.889 0 306.648 0Z" fill="white"/>
</g>
</svg>
