<svg width="243" height="36" viewBox="0 0 243 36" fill="none" xmlns="http://www.w3.org/2000/svg">
<g id="Group">
<path id="Vector" d="M193.534 0.390106C188.25 1.66203 184.22 5.86232 182.668 11.7191C181.862 14.7362 181.772 20.5338 182.519 23.3438C183.802 28.3428 186.877 32.3656 190.907 34.3178C192.937 35.294 193.057 35.3235 196.878 35.3235C200.699 35.3235 200.788 35.294 202.848 34.3178C206.789 32.4247 209.804 28.5202 211.088 23.7284C211.864 20.8296 211.923 15.8602 211.237 12.6952C209.326 3.82133 201.624 -1.53256 193.534 0.390106ZM199.833 2.49025C204.281 3.64386 207.475 7.16382 208.879 12.4881C209.476 14.7953 209.565 20.5042 208.998 22.7522C208.341 25.4736 206.64 28.6386 204.968 30.295C203.087 32.1289 201.117 33.1051 198.341 33.4896C194.579 34.0516 190.668 32.6022 188.191 29.733C186.668 27.9582 185.086 24.5566 184.608 21.924C182.399 9.5006 189.862 -0.0831647 199.833 2.49025Z" fill="white"/>
<path id="Vector_2" d="M0 17.7237V34.584H10.2394H20.4789L20.3595 33.5488L20.24 32.5135L11.2246 32.4543L2.23894 32.3656V25.5623V18.759L9.79165 18.6702L17.3145 18.6111V17.7237V16.8363L9.79165 16.7772L2.23894 16.6884L2.14939 9.79639L2.08968 2.93393H10.7469H19.4042L19.7027 2.16486C19.8818 1.75075 20.0012 1.27748 20.0012 1.12958C20.0012 0.981684 16.001 0.863364 10.0006 0.863364H0V17.7237Z" fill="white"/>
<path id="Vector_3" d="M26.8673 17.7237V34.584H27.9122H28.957V19.2027C28.957 10.7429 29.0466 3.82132 29.1958 3.82132C29.3152 3.82132 33.9125 10.7429 39.3756 19.2027L49.3463 34.584H50.8091H52.242V17.7237V0.863364H51.0479H49.8538V16.0081C49.8538 28.9343 49.7941 31.0937 49.4359 30.7387C49.2269 30.5021 46.8984 26.9525 44.2714 22.9001C41.6742 18.8181 37.4053 12.2219 34.8081 8.16951L30.0615 0.863364H28.4495H26.8673V17.7237Z" fill="white"/>
<path id="Vector_4" d="M61.1978 17.7237V34.584H67.4071C71.3178 34.5545 74.4523 34.4066 75.9151 34.1403C83.6768 32.7797 88.0353 27.0708 88.0651 18.2561C88.0651 11.3937 85.4978 5.86231 80.9303 2.93393C78.3033 1.27748 75.736 0.863364 68.0042 0.863364H61.1978V17.7237ZM77.5869 3.67342C80.6915 4.70871 83.229 7.37086 84.6619 11.0683C85.3187 12.7839 85.4978 13.76 85.6172 16.7772C85.8262 22.5747 84.9007 25.7102 82.0349 28.816C79.4079 31.6852 76.3629 32.5135 68.452 32.5135H63.586V17.7237V2.96351L68.0042 2.87477C72.9 2.78603 75.5867 2.99309 77.5869 3.67342Z" fill="white"/>
<path id="Vector_5" d="M94.6327 17.7237V34.584H104.783H114.932V33.5488V32.5135H105.827H96.7224V25.5623V18.6111H104.186H111.649V17.635V16.6884H104.275H96.8716L96.7821 9.79639L96.7224 2.93393H105.38C110.126 2.93393 114.037 2.90435 114.037 2.84519C114.037 2.81561 114.156 2.34234 114.306 1.80991L114.604 0.863364H104.603H94.6327V17.7237Z" fill="white"/>
<path id="Vector_6" d="M134.247 1.07042C134.098 1.30706 133.351 3.08183 128.724 14.1742C127.262 17.6645 124.784 23.61 123.172 27.3962C121.59 31.1528 120.306 34.3178 120.306 34.4361C120.306 34.5249 120.784 34.584 121.381 34.5249L122.455 34.4361L124.336 29.9992L126.217 25.5623L133.381 25.4735L140.546 25.4144L140.874 24.4678C141.053 23.965 141.203 23.5213 141.203 23.4621C141.203 23.403 138.068 23.3142 134.217 23.2847L127.232 23.1959L131.262 13.5826C133.471 8.28783 135.381 3.8509 135.501 3.73258C135.62 3.61426 136.785 6.0102 138.038 9.0569C139.322 12.1036 140.695 15.3573 141.053 16.2447C141.442 17.1321 142.457 19.5281 143.292 21.569C144.158 23.61 145.501 26.8046 146.278 28.6681C147.084 30.5316 147.949 32.6318 148.218 33.3121C148.696 34.4953 148.815 34.584 149.89 34.584H151.084L150.666 33.7558C150.427 33.3121 149.502 31.1528 148.576 28.9639C147.681 26.775 145.621 21.8353 144.009 18.0195C142.427 14.2037 140.277 8.99774 139.232 6.48348C138.188 3.96922 137.202 1.69159 137.053 1.45495C136.785 0.981684 134.486 0.656308 134.247 1.07042Z" fill="white"/>
<path id="Vector_7" d="M149.263 1.12959C149.263 1.27748 149.502 1.95781 149.83 2.66772C150.815 5.0045 161.98 31.7148 162.786 33.7558C163.085 34.4953 163.294 34.584 164.488 34.584H165.861L166.936 31.981C167.533 30.5612 169.234 26.5384 170.697 23.048C172.16 19.5576 174.787 13.2868 176.548 9.11606C178.28 4.94534 179.713 1.3958 179.713 1.18874C179.713 1.01127 179.265 0.863368 178.727 0.863368H177.742L174.041 9.64849C170.279 18.6702 169.264 21.0366 166.577 27.4554C165.742 29.4964 164.906 31.3894 164.727 31.7148C164.458 32.2177 164.1 31.5669 162.338 27.3075C161.204 24.5566 159.622 20.7704 158.816 18.9069C158.04 17.0434 156.726 13.9079 155.92 11.9557C150.875 -0.0831761 151.353 0.863368 150.248 0.863368C149.711 0.863368 149.263 0.981688 149.263 1.12959Z" fill="white"/>
<path id="Vector_8" d="M217.924 17.7237V34.584H219.118H220.312V26.4497V18.3153H226.372H232.432L236.612 26.4497L240.761 34.584H241.895C242.493 34.584 243 34.5249 243 34.4361C243 34.377 241.119 30.65 238.791 26.1539C235.149 19.0548 234.671 17.9899 235.149 17.842C239.537 16.3926 241.895 13.4642 241.895 9.44143C241.895 7.10465 241.149 5.27072 239.597 3.73258C237.089 1.21832 235.268 0.863364 225.536 0.863364H217.924V17.7237ZM235.089 3.25931C237.627 4.11711 239.716 7.07507 239.716 9.76681C239.716 11.3641 238.433 13.7305 237.119 14.5883C234.731 16.156 233.776 16.3335 226.82 16.4814L220.312 16.5997V9.58933V2.57898L227.118 2.72688C231.835 2.81561 234.253 2.96351 235.089 3.25931Z" fill="white"/>
</g>
</svg>
